<svg xmlns="http://www.w3.org/2000/svg" version="1.1" xmlns:xlink="http://www.w3.org/1999/xlink" xmlns:svgjs="http://svgjs.dev/svgjs" width="1000" height="1000" viewBox="0 0 1000 1000"><rect width="1000" height="1000" fill="#ffffff"></rect><g transform="matrix(0.7,0,0,0.7,149.57575767137826,372.75357730883195)"><svg viewBox="0 0 396 144" data-background-color="#ffffff" preserveAspectRatio="xMidYMid meet" height="363" width="1000" xmlns="http://www.w3.org/2000/svg" xmlns:xlink="http://www.w3.org/1999/xlink"><g id="tight-bounds" transform="matrix(1,0,0,1,0.24000005409396863,0.1113139217953858)"><svg viewBox="0 0 395.52 143.77737215640926" height="143.77737215640926" width="395.52"><g><svg viewBox="0 0 672.4110342066114 244.43135999999998" height="143.77737215640926" width="395.52"><g transform="matrix(1,0,0,1,0,11.885894304240907)"><svg viewBox="0 0 395.52 220.65957139151817" height="220.65957139151817" width="395.52"><g><svg viewBox="0 0 395.52 220.65957139151817" height="220.65957139151817" width="395.52"><g><svg viewBox="0 0 395.52 137.4967137981472" height="137.4967137981472" width="395.52"><g transform="matrix(1,0,0,1,0,0)"><svg width="395.52" viewBox="3.950000047683716 -34.849998474121094 102.54000091552734 35.64999771118164" height="137.4967137981472" data-palette-color="#233565"><path d="M27.05 0L23.1 0 14.45-15.05 7.7-15.05 7.7 0 3.95 0 3.95-34.1 15.35-34.1Q18.45-34.1 20.8-32.9 23.15-31.7 24.4-29.53 25.65-27.35 25.65-24.55L25.65-24.55Q25.65-21.15 23.6-18.73 21.55-16.3 18.15-15.45L18.15-15.45 27.05 0ZM7.7-31L7.7-18.15 14.85-18.15Q18.15-18.15 19.93-19.9 21.7-21.65 21.7-24.55L21.7-24.55Q21.7-27.45 19.93-29.23 18.15-31 14.85-31L14.85-31 7.7-31ZM41.3-17.1L50.5-34.1 53.95-34.1 42.9-13.95 42.9 0 39.2 0 39.2-14.1 28.25-34.1 32-34.1 41.3-17.1ZM80.45 0L76.2 0 64.5-16.4 60.9-12.15 60.9 0 57.15 0 57.15-34.1 60.9-34.1 60.9-16.85 75.3-34.1 79.45-34.1 66.7-19 80.45 0ZM94.79 0.8Q91.04 0.8 87.49-1.07 83.94-2.95 81.59-6.15L81.59-6.15 84.64-8.85Q86.44-6 89.24-4.33 92.04-2.65 95.29-2.65L95.29-2.65Q98.84-2.65 100.69-4.23 102.54-5.8 102.54-8.5L102.54-8.5Q102.54-11.45 100.57-13.03 98.59-14.6 94.29-15.8L94.29-15.8Q83.49-18.45 83.49-25.6L83.49-25.6Q83.49-30.05 86.39-32.45 89.29-34.85 94.44-34.85L94.44-34.85Q98.19-34.85 101.17-33.45 104.14-32.05 106.49-29.15L106.49-29.15 103.54-26.65Q101.74-29.1 99.59-30.28 97.44-31.45 94.44-31.45L94.44-31.45Q91.29-31.45 89.29-29.98 87.29-28.5 87.29-25.95L87.29-25.95Q87.29-23.35 89.14-21.83 90.99-20.3 95.39-19.25L95.39-19.25Q100.59-17.85 103.47-15.4 106.34-12.95 106.34-8.5L106.34-8.5Q106.34-5.75 104.94-3.65 103.54-1.55 100.92-0.38 98.29 0.8 94.79 0.8L94.79 0.8Z" opacity="1" transform="matrix(1,0,0,1,0,0)" fill="#000000" class="undefined-text-0" data-fill-palette-color="primary" id="text-0"></path></svg></g></svg></g><g transform="matrix(1,0,0,1,163.31020800000002,169.9563880047586)"><svg viewBox="0 0 232.20979199999996 50.70318338675958" height="50.70318338675958" width="232.20979199999996"><g transform="matrix(1,0,0,1,0,0)"><svg width="232.20979199999996" viewBox="4.400000095367432 -37.099998474121094 172.19000244140625 37.599998474121094" height="50.70318338675958" data-palette-color="#233565"><path d="M32.45-26.05L32.45-26.05Q32.45-22.35 30.75-19.93 29.05-17.5 26.05-16.3 23.05-15.1 19.15-15.1L19.15-15.1 10.95-15.1Q10.45-15.1 10.45-14.6L10.45-14.6 10.45-0.85Q10.45 0 9.55 0L9.55 0 5.2 0Q4.75 0 4.58-0.18 4.4-0.35 4.4-0.75L4.4-0.75 4.4-36.35Q4.4-37.1 5.1-37.1L5.1-37.1 18.45-37.1Q22.4-37.1 25.58-35.95 28.75-34.8 30.6-32.35 32.45-29.9 32.45-26.05L32.45-26.05ZM26.25-26.2L26.25-26.2Q26.25-28.5 25.25-29.93 24.25-31.35 22.43-32 20.6-32.65 18.1-32.65L18.1-32.65 11.2-32.65Q10.45-32.65 10.45-31.95L10.45-31.95 10.45-20.3Q10.45-19.55 11-19.55L11-19.55 18.45-19.55Q22-19.55 24.13-21.2 26.25-22.85 26.25-26.2L26.25-26.2ZM39.25 0L39.25 0Q38.45 0 38.45-0.8L38.45-0.8 38.45-36.35Q38.45-37.1 39.05-37.1L39.05-37.1 43-37.1Q43.6-37.1 43.6-36.45L43.6-36.45 43.6-23.25Q43.6-23 43.72-22.93 43.85-22.85 44.1-23.1L44.1-23.1Q45.8-24.45 47.22-25.3 48.65-26.15 50.07-26.58 51.5-27 53.1-27L53.1-27Q56.95-27 59-24.93 61.05-22.85 61.05-19.3L61.05-19.3 61.05-0.9Q61.05 0 60.2 0L60.2 0 56.5 0Q56.1 0 55.92-0.18 55.75-0.35 55.75-0.8L55.75-0.8 55.75-18.3Q55.75-20.5 54.62-21.75 53.5-23 51.1-23L51.1-23Q49.75-23 48.57-22.58 47.4-22.15 46.25-21.33 45.1-20.5 43.75-19.25L43.75-19.25 43.75-0.85Q43.75 0 42.8 0L42.8 0 39.25 0ZM79.25 0.5L79.25 0.5Q75.4 0.5 72.5-1.23 69.59-2.95 68-6.03 66.39-9.1 66.39-13.1L66.39-13.1Q66.39-17.25 68.05-20.38 69.7-23.5 72.62-25.25 75.55-27 79.3-27L79.3-27Q83.2-27 86.07-25.23 88.95-23.45 90.55-20.33 92.15-17.2 92.15-13.15L92.15-13.15Q92.15-9.15 90.52-6.08 88.9-3 86-1.25 83.09 0.5 79.25 0.5L79.25 0.5ZM79.34-3.25L79.34-3.25Q81.7-3.25 83.34-4.45 85-5.65 85.87-7.88 86.75-10.1 86.75-13.25L86.75-13.25Q86.75-16.4 85.87-18.65 85-20.9 83.32-22.13 81.65-23.35 79.3-23.35L79.3-23.35Q76.95-23.35 75.27-22.13 73.59-20.9 72.7-18.65 71.8-16.4 71.8-13.25L71.8-13.25Q71.8-10.1 72.7-7.88 73.59-5.65 75.27-4.45 76.95-3.25 79.34-3.25L79.34-3.25ZM98.54 0L98.54 0Q97.74 0 97.74-0.8L97.74-0.8 97.74-25.75Q97.74-26.5 98.39-26.5L98.39-26.5 102.34-26.5Q102.94-26.5 102.94-25.85L102.94-25.85 102.94-23.1Q102.94-22.85 103.07-22.78 103.19-22.7 103.44-22.95L103.44-22.95Q104.99-24.2 106.39-25.13 107.79-26.05 109.24-26.53 110.69-27 112.39-27L112.39-27Q116.19-27 118.29-24.9 120.39-22.8 120.39-19.35L120.39-19.35 120.39-0.9Q120.39 0 119.54 0L119.54 0 115.84 0Q115.44 0 115.27-0.18 115.09-0.35 115.09-0.8L115.09-0.8 115.09-18.3Q115.09-20.5 113.94-21.75 112.79-23 110.39-23L110.39-23Q109.04-23 107.89-22.58 106.74-22.15 105.59-21.33 104.44-20.5 103.04-19.25L103.04-19.25 103.04-0.85Q103.04 0 102.09 0L102.09 0 98.54 0ZM131.19-11.4L131.19-11.4Q131.19-9.15 132.27-7.33 133.34-5.5 135.17-4.42 136.99-3.35 139.24-3.35L139.24-3.35Q141.54-3.35 143.34-4.3 145.14-5.25 146.64-7.25L146.64-7.25Q146.79-7.45 146.94-7.48 147.09-7.5 147.39-7.35L147.39-7.35 149.94-6.15Q150.49-5.9 150.04-5.35L150.04-5.35Q148.64-3.3 146.97-2 145.29-0.7 143.24-0.1 141.19 0.5 138.69 0.5L138.69 0.5Q134.89 0.5 131.99-1.2 129.09-2.9 127.42-5.95 125.74-9 125.74-12.95L125.74-12.95Q125.74-17.3 127.44-20.43 129.14-23.55 132.07-25.28 134.99-27 138.59-27L138.59-27Q142.29-27 145.07-25.38 147.84-23.75 149.39-20.7 150.94-17.65 150.94-13.3L150.94-13.3Q150.94-12.85 150.84-12.53 150.74-12.2 150.19-12.2L150.19-12.2 131.69-12.2Q131.44-12.2 131.32-11.98 131.19-11.75 131.19-11.4L131.19-11.4ZM131.29-15.4L144.84-15.35Q145.39-15.35 145.54-15.5 145.69-15.65 145.69-16.05L145.69-16.05Q145.69-17.95 144.87-19.65 144.04-21.35 142.52-22.4 140.99-23.45 138.74-23.45L138.74-23.45Q136.39-23.45 134.72-22.33 133.04-21.2 132.17-19.35 131.29-17.5 131.29-15.4L131.29-15.4ZM172.29-20.3L172.29-20.3Q171.34-21.7 169.64-22.6 167.94-23.5 165.59-23.5L165.59-23.5Q163.14-23.5 161.51-22.5 159.89-21.5 159.89-19.7L159.89-19.7Q159.89-18.85 160.59-18 161.29-17.15 163.59-16.5L163.59-16.5 169.74-14.75Q173.39-13.8 174.99-11.9 176.59-10 176.59-7.55L176.59-7.55Q176.59-5.05 175.16-3.28 173.74-1.5 171.21-0.5 168.69 0.5 165.44 0.5L165.44 0.5Q161.34 0.5 158.31-1.07 155.29-2.65 154.04-5L154.04-5Q153.94-5.3 153.94-5.53 153.94-5.75 154.14-5.9L154.14-5.9 156.59-7.2Q156.94-7.4 157.16-7.38 157.39-7.35 157.49-7.15L157.49-7.15Q158.29-6 159.34-5.1 160.39-4.2 161.89-3.68 163.39-3.15 165.49-3.15L165.49-3.15Q167.24-3.15 168.66-3.63 170.09-4.1 170.89-4.95 171.69-5.8 171.69-6.95L171.69-6.95Q171.69-8.15 170.71-9.03 169.74-9.9 167.29-10.55L167.29-10.55 162.19-11.85Q158.39-12.85 156.74-14.6 155.09-16.35 155.09-18.8L155.09-18.8Q155.09-21.25 156.39-23.08 157.69-24.9 160.06-25.95 162.44-27 165.64-27L165.64-27Q169.14-27 171.79-25.68 174.44-24.35 175.79-22.3L175.79-22.3Q175.94-22.1 175.99-21.88 176.04-21.65 175.74-21.45L175.74-21.45 173.14-20.1Q172.94-20 172.71-20.05 172.49-20.1 172.29-20.3L172.29-20.3Z" opacity="1" transform="matrix(1,0,0,1,0,0)" fill="#000000" class="undefined-text-1" data-fill-palette-color="secondary" id="text-1"></path></svg></g></svg></g></svg></g></svg></g><g transform="matrix(1,0,0,1,427.9796742066114,0)"><svg viewBox="0 0 244.43135999999998 244.43135999999998" height="244.43135999999998" width="244.43135999999998"><g data-palette-color="#016ba6"><rect width="66.8112384" height="244.43135999999998" fill="#000000" stroke="transparent" data-fill-palette-color="accent" x="0" fill-opacity="1"></rect><rect width="66.8112384" height="244.43135999999998" fill="#000000" stroke="transparent" data-fill-palette-color="accent" x="81.47711999999999" fill-opacity="0.75"></rect><rect width="66.8112384" height="244.43135999999998" fill="#000000" stroke="transparent" data-fill-palette-color="accent" x="162.95423999999997" fill-opacity="0.5"></rect></g></svg></g></svg></g><defs></defs></svg><rect width="395.52" height="143.77737215640926" fill="none" stroke="none" visibility="hidden"></rect></g></svg></g></svg>